<?xml version="1.0" standalone="no"?>
<!DOCTYPE svg PUBLIC "-//W3C//DTD SVG 20010904//EN"
 "http://www.w3.org/TR/2001/REC-SVG-20010904/DTD/svg10.dtd">
<svg version="1.0" xmlns="http://www.w3.org/2000/svg"
 width="736.000000pt" height="736.000000pt" viewBox="0 0 736.000000 736.000000"
 preserveAspectRatio="xMidYMid meet">
<metadata>
Created by potrace 1.14, written by Peter Selinger 2001-2017
</metadata>
<g transform="translate(0.000000,736.000000) scale(0.100000,-0.100000)"
fill="#000000" stroke="none">
<path d="M3991 5873 c-11 -16 -144 -215 -296 -443 -152 -228 -284 -419 -292
-424 -20 -11 -633 -14 -633 -3 0 7 156 250 209 327 92 132 191 304 191 331 0
13 -52 11 -71 -4 -25 -20 -197 -253 -372 -506 -40 -57 -83 -113 -97 -123 -47
-34 -127 -46 -355 -53 -121 -3 -276 -8 -345 -10 -69 -3 -199 -7 -290 -10 -350
-11 -655 -24 -690 -30 -14 -2 -50 -6 -80 -10 -116 -13 -136 -16 -157 -27 -28
-14 -36 -47 -18 -75 15 -22 20 -23 133 -19 64 3 158 7 207 10 50 3 194 8 320
12 228 5 309 8 620 19 88 3 247 8 354 11 l193 5 -108 -158 c-60 -87 -135 -197
-169 -245 -33 -48 -96 -140 -140 -204 -43 -64 -93 -125 -110 -136 -62 -38 -68
-38 -540 -53 -104 -3 -242 -8 -305 -10 -63 -2 -187 -7 -275 -10 -411 -13 -571
-22 -585 -30 -3 -2 -43 -6 -90 -10 -111 -9 -140 -24 -140 -71 0 -38 23 -46
122 -44 51 0 109 3 128 5 19 2 136 6 260 10 124 3 272 8 330 10 58 2 220 7
360 10 140 4 291 9 335 10 179 6 286 7 291 3 2 -3 -47 -83 -110 -179 -129
-195 -247 -384 -296 -474 -18 -33 -50 -90 -71 -127 -40 -68 -48 -101 -28 -114
12 -7 38 20 91 96 28 39 51 67 103 124 78 86 204 260 377 523 48 73 98 139
111 148 19 12 69 15 298 16 151 0 289 0 307 0 l33 -1 -23 -40 c-43 -74 -602
-903 -692 -1024 -49 -67 -114 -147 -144 -178 -103 -108 -168 -210 -177 -280
-5 -39 28 -78 67 -78 22 0 40 10 67 38 43 44 180 232 313 427 52 77 137 203
190 280 52 77 137 203 190 280 52 77 155 229 227 338 73 108 146 206 162 217
25 19 47 21 226 25 186 3 382 13 393 20 3 2 41 6 85 10 44 4 84 11 88 15 12
11 -90 43 -179 55 -21 3 -48 7 -59 10 -59 12 -217 23 -358 24 l-97 1 19 38
c19 35 65 107 343 530 142 217 127 209 357 211 187 2 330 8 376 16 30 5 171
21 213 24 30 2 7 20 -45 34 -140 39 -385 69 -585 71 -43 1 -78 2 -78 4 0 1 28
46 63 100 35 53 86 133 115 177 28 44 80 125 116 180 116 177 207 343 208 376
2 59 -57 79 -91 32z m-739 -1095 c-335 -504 -406 -609 -431 -639 l-29 -34
-316 -3 c-174 -2 -316 0 -316 3 0 14 81 150 110 182 5 7 15 24 22 38 6 14 15
25 20 25 4 0 8 7 8 15 0 8 3 15 8 15 4 0 25 30 47 66 22 36 48 75 58 86 9 12
17 25 17 29 0 4 6 14 13 21 7 7 50 69 95 138 54 82 94 131 115 143 28 15 65
17 340 17 l307 0 -68 -102z"/>
<path d="M4309 3956 c-14 -6 -56 -45 -94 -87 -98 -106 -106 -110 -222 -111
-196 -2 -350 -63 -511 -203 -13 -11 -39 -41 -58 -66 -52 -71 -51 -140 2 -190
23 -21 35 -24 103 -23 73 0 82 3 167 49 49 26 156 90 237 142 82 52 154 96
162 99 10 4 11 -3 6 -33 -3 -21 -6 -70 -6 -109 0 -80 16 -114 68 -140 64 -34
216 -10 340 52 l47 25 -40 -79 c-22 -44 -40 -87 -40 -96 0 -91 109 -67 167 35
53 93 120 175 229 276 127 118 192 163 244 170 63 9 85 -13 115 -111 48 -156
89 -190 228 -184 64 3 87 1 87 -8 0 -7 12 -22 26 -33 31 -24 81 -27 136 -7 36
13 164 94 266 169 30 21 56 37 58 34 3 -2 9 -30 14 -62 19 -117 110 -160 272
-129 137 26 321 140 288 179 -13 15 -31 11 -180 -38 -162 -54 -218 -57 -239
-11 -17 38 -14 60 21 172 35 113 33 129 -16 145 -41 14 -70 2 -139 -56 -214
-180 -368 -289 -367 -260 0 5 34 55 75 112 75 104 89 143 63 169 -39 39 -111
-19 -205 -163 -46 -71 -50 -74 -88 -76 -94 -5 -137 -1 -151 12 -7 8 -22 55
-32 105 -32 153 -71 193 -180 180 -68 -8 -109 -31 -227 -130 -49 -41 -92 -73
-94 -71 -5 6 14 52 61 150 50 103 60 147 41 174 -32 46 -75 13 -139 -104 -21
-38 -55 -101 -76 -140 -21 -38 -50 -94 -65 -124 -28 -53 -30 -55 -159 -118
-84 -41 -149 -66 -181 -69 -46 -6 -51 -4 -72 22 -18 23 -21 36 -16 74 12 89
28 133 119 322 21 42 38 90 38 107 2 52 -37 78 -83 57z m-324 -322 c-94 -83
-269 -179 -389 -214 -63 -18 -66 -18 -56 0 30 55 179 159 293 202 40 16 150
43 187 47 3 0 -13 -16 -35 -35z"/>
<path d="M3029 3211 c-22 -18 -23 -24 -24 -187 0 -93 3 -174 8 -181 4 -6 3
-14 -3 -18 -5 -3 -10 -11 -10 -16 0 -6 4 -7 10 -4 6 4 7 -2 2 -17 -9 -28 -9
-49 1 -65 4 -6 3 -14 -3 -18 -5 -3 -10 -11 -10 -16 0 -6 4 -7 10 -4 6 4 7 -2
2 -17 -9 -28 -8 -130 1 -145 4 -6 3 -14 -3 -18 -5 -3 -10 -11 -10 -16 0 -6 5
-7 12 -3 6 4 8 3 4 -4 -11 -18 -14 -72 -4 -78 5 -3 4 -12 -3 -20 -9 -11 -9
-21 0 -40 6 -15 7 -23 1 -19 -5 3 -10 -1 -10 -10 0 -9 5 -13 10 -10 6 3 10 1
10 -4 0 -6 -3 -11 -7 -11 -5 0 -8 -18 -9 -39 0 -23 4 -37 10 -34 5 4 6 1 1 -8
-7 -11 -10 -67 -6 -108 2 -18 33 -41 56 -41 31 0 70 47 54 66 -9 11 -8 14 2
14 11 0 11 2 -1 10 -12 8 -12 10 -1 10 11 0 11 3 0 17 -8 9 -9 14 -4 11 6 -4
11 2 11 13 0 13 -5 18 -15 14 -11 -4 -11 -3 -2 9 15 18 21 95 9 103 -6 3 -4 9
3 14 12 7 12 9 0 9 -9 0 -10 4 -5 13 11 15 11 67 1 85 -5 7 -4 12 2 12 6 0 11
9 11 21 0 11 -4 18 -9 15 -11 -7 -8 21 4 31 4 4 5 2 1 -4 -4 -7 -2 -13 5 -13
7 0 9 10 7 25 -3 15 -1 22 5 18 6 -4 8 2 4 16 -3 13 -3 20 0 17 7 -7 43 38 43
54 0 6 5 8 10 5 6 -3 10 -2 10 4 0 6 11 13 25 17 14 3 25 10 25 16 0 5 3 7 8
5 4 -3 31 -1 60 3 32 4 55 3 59 -3 3 -6 13 -2 21 9 11 14 13 15 9 3 -5 -17 37
-45 58 -40 6 2 7 0 3 -4 -4 -4 2 -22 13 -41 10 -19 19 -44 19 -55 0 -11 4 -18
8 -15 5 3 9 -1 9 -9 0 -8 -3 -12 -7 -10 -4 2 -6 -16 -6 -40 1 -23 4 -41 9 -38
4 2 7 0 7 -6 0 -5 -4 -12 -8 -15 -9 -6 -8 -48 2 -64 4 -7 2 -12 -6 -12 -9 0
-9 -3 2 -10 8 -5 11 -10 5 -10 -5 0 -10 -18 -10 -40 -1 -22 3 -40 8 -40 4 0 5
-6 0 -12 -12 -19 -11 -118 2 -118 5 0 4 -4 -3 -8 -9 -7 -8 -13 8 -27 51 -46
97 -20 103 58 3 40 1 47 -12 42 -14 -4 -14 -4 -1 7 16 14 21 142 6 166 -4 6
-3 12 2 12 12 0 10 43 -3 52 -6 5 -4 8 5 8 13 0 13 1 0 10 -8 5 -10 10 -4 10
5 0 9 16 8 38 -1 20 -3 52 -3 70 -1 18 -4 31 -8 29 -5 -3 -9 11 -10 31 -1 19
-8 39 -15 43 -7 5 -9 9 -5 9 12 0 -12 40 -24 40 -6 0 -8 -4 -5 -8 3 -5 -1 -9
-9 -9 -11 0 -12 4 -3 14 8 11 7 18 -9 32 -24 23 -68 47 -59 33 3 -6 1 -14 -5
-18 -7 -4 -9 -3 -6 2 10 17 -7 32 -38 35 -28 4 -30 2 -29 -28 0 -18 -3 -30 -7
-28 -3 3 -5 18 -4 35 2 29 1 30 -36 30 -21 0 -50 -5 -66 -11 -15 -7 -35 -13
-43 -14 -8 -1 -30 -11 -47 -22 -26 -15 -30 -22 -20 -32 9 -10 8 -11 -5 -6 -11
4 -18 2 -18 -5 0 -6 -4 -9 -9 -6 -8 5 -23 -16 -25 -36 -1 -3 -4 -9 -8 -13 -3
-4 -5 1 -3 12 2 10 4 18 5 18 1 0 3 21 4 47 1 30 -2 44 -9 40 -5 -3 -4 1 3 10
10 12 10 18 1 23 -8 6 -7 10 2 16 11 7 11 9 1 9 -8 0 -10 5 -6 12 12 19 11 98
0 98 -7 0 -8 3 -1 8 6 4 11 17 11 30 1 17 -3 22 -14 17 -13 -5 -13 -2 2 14 13
15 14 20 4 24 -8 4 -9 8 -3 14 6 4 10 38 10 75 -1 97 -40 134 -96 89z m75 -17
c3 -8 2 -12 -4 -9 -6 3 -10 10 -10 16 0 14 7 11 14 -7z m-49 -34 c-3 -5 -12
-10 -18 -10 -7 0 -6 4 3 10 19 12 23 12 15 0z m35 6 c0 -3 -4 -8 -10 -11 -5
-3 -10 -1 -10 4 0 6 5 11 10 11 6 0 10 -2 10 -4z m20 -87 c0 -5 -4 -9 -8 -9
-5 0 -9 7 -9 15 0 8 4 12 9 9 4 -3 8 -9 8 -15z m-80 1 c0 -5 -2 -10 -4 -10 -3
0 -8 5 -11 10 -3 6 -1 10 4 10 6 0 11 -4 11 -10z m17 -35 c0 -8 -4 -12 -9 -9
-5 3 -6 10 -3 15 9 13 12 11 12 -6z m7 -43 c3 -5 -1 -9 -9 -9 -8 0 -12 4 -9 9
3 4 7 8 9 8 2 0 6 -4 9 -8z m16 -26 c0 -2 -8 -10 -17 -17 -16 -13 -17 -12 -4
4 13 16 21 21 21 13z m13 -51 c15 1 25 -1 22 -4 -14 -14 -56 -6 -72 13 -18 21
-18 21 2 5 11 -9 32 -15 48 -14z m-43 -21 c0 -8 -19 -13 -24 -6 -3 5 1 9 9 9
8 0 15 -2 15 -3z m30 -24 c0 -5 -2 -10 -4 -10 -3 0 -8 5 -11 10 -3 6 -1 10 4
10 6 0 11 -4 11 -10z m-3 -35 c0 -8 -4 -15 -9 -15 -10 0 -11 14 -1 23 9 10 10
9 10 -8z m9 -48 c4 -3 -4 -4 -16 -2 -12 2 -25 7 -28 10 -3 3 4 4 16 2 12 -2
24 -6 28 -10z m250 -31 c1 -7 -4 -13 -12 -13 -9 0 -11 4 -4 12 5 7 8 15 5 18
-3 4 -2 5 2 2 4 -3 8 -11 9 -19z m39 6 c-3 -3 -11 0 -18 7 -9 10 -8 11 6 5 10
-3 15 -9 12 -12z m4 -25 c8 -10 7 -14 -2 -14 -8 0 -14 6 -14 14 0 7 1 13 2 13
2 0 8 -6 14 -13z m-145 -37 c-6 -6 -10 -3 -10 10 0 13 4 16 10 10 7 -7 7 -13
0 -20z m46 16 c0 -2 -7 -7 -16 -10 -8 -3 -12 -2 -9 4 6 10 25 14 25 6z m190 0
c0 -2 -8 -10 -17 -17 -16 -13 -17 -12 -4 4 13 16 21 21 21 13z m-393 -41 c0
-8 -4 -15 -9 -15 -10 0 -11 14 -1 23 9 10 10 9 10 -8z m408 -5 c3 -6 -1 -7 -9
-4 -18 7 -21 14 -7 14 6 0 13 -4 16 -10z m-305 -22 c0 -4 -4 -8 -9 -8 -6 0
-12 4 -15 8 -3 5 1 9 9 9 8 0 15 -4 15 -9z m396 -32 c-2 -38 -12 -39 -12 -1 0
18 3 32 7 30 3 -3 5 -15 5 -29z m-480 -31 c-1 -8 -5 -17 -8 -21 -4 -3 -5 2 -4
13 2 10 -2 25 -8 33 -9 13 -9 13 6 2 9 -7 15 -19 14 -27z m-19 -70 c0 -8 -4
-15 -9 -15 -10 0 -11 14 -1 23 9 10 10 9 10 -8z m523 -4 c0 -6 -4 -12 -8 -15
-5 -3 -9 1 -9 9 0 8 4 15 9 15 4 0 8 -4 8 -9z m-514 -44 c4 -3 -4 -4 -16 -2
-30 6 -40 16 -12 12 12 -2 24 -6 28 -10z m489 -37 c3 -5 1 -10 -4 -10 -6 0
-11 5 -11 10 0 6 2 10 4 10 3 0 8 -4 11 -10z m-520 -29 c3 -5 2 -12 -3 -15 -5
-3 -9 1 -9 9 0 17 3 19 12 6z m502 -16 c0 -8 -4 -12 -9 -9 -4 3 -8 9 -8 15 0
5 4 9 8 9 5 0 9 -7 9 -15z m-480 -30 c0 -8 -4 -15 -9 -15 -10 0 -11 14 -1 23
9 10 10 9 10 -8z m523 -6 c0 -5 -4 -9 -8 -9 -5 0 -9 7 -9 15 0 8 4 12 9 9 4
-3 8 -9 8 -15z m-550 5 c0 -8 -19 -13 -24 -6 -3 5 1 9 9 9 8 0 15 -2 15 -3z
m514 -42 c3 -5 -1 -9 -9 -9 -8 0 -12 4 -9 9 3 4 7 8 9 8 2 0 6 -4 9 -8z m-469
-41 c3 -5 2 -12 -3 -15 -5 -3 -9 1 -9 9 0 17 3 19 12 6z m-35 -23 c0 -4 -4 -8
-9 -8 -6 0 -12 4 -15 8 -3 5 1 9 9 9 8 0 15 -4 15 -9z m40 -12 c0 -3 -4 -8
-10 -11 -5 -3 -10 -1 -10 4 0 6 5 11 10 11 6 0 10 -2 10 -4z m480 -46 c0 -5
-2 -10 -4 -10 -3 0 -8 5 -11 10 -3 6 -1 10 4 10 6 0 11 -4 11 -10z m-476 -22
c-3 -4 -9 -8 -15 -8 -5 0 -9 4 -9 8 0 5 7 9 15 9 8 0 12 -4 9 -9z m-14 -52 c0
-2 -8 -10 -17 -17 -16 -13 -17 -12 -4 4 13 16 21 21 21 13z"/>
<path d="M4070 2788 c0 -5 -5 -6 -10 -3 -6 4 -18 1 -27 -7 -13 -10 -15 -10 -9
0 5 9 -5 8 -36 -4 -103 -40 -137 -98 -77 -130 17 -8 28 -11 25 -5 -4 6 -2 11
3 11 6 0 11 -4 11 -10 0 -5 15 -1 33 10 17 11 40 20 50 20 9 0 17 4 17 8 0 5
30 10 67 11 37 1 74 8 82 14 12 9 13 9 7 -1 -5 -8 3 -17 26 -26 18 -8 42 -24
52 -35 16 -17 22 -19 35 -8 14 10 14 10 5 -3 -16 -21 -4 -85 16 -85 8 1 14 7
12 14 -1 7 2 10 8 6 8 -5 8 -11 -1 -21 -6 -7 -15 -11 -20 -9 -4 3 -15 -7 -23
-22 -8 -15 -15 -22 -16 -15 0 6 -5 12 -11 12 -5 0 -8 -4 -5 -8 3 -5 -1 -9 -9
-9 -8 0 -12 4 -9 9 3 4 -7 8 -21 8 -15 0 -24 -4 -20 -10 3 -5 1 -10 -4 -10 -6
0 -11 5 -11 10 0 6 -5 10 -11 10 -5 0 -8 -4 -5 -8 2 -4 -4 -8 -14 -8 -10 0
-16 5 -13 10 4 5 -1 7 -11 3 -10 -4 -22 -7 -27 -7 -4 0 -6 -6 -3 -13 3 -8 -3
-20 -13 -28 -17 -13 -17 -13 -4 4 9 12 11 21 4 28 -13 13 -74 0 -66 -15 4 -7
2 -7 -7 1 -14 13 -55 -1 -78 -27 -8 -8 -11 -9 -7 -2 3 6 2 12 -3 12 -15 0 -33
-26 -24 -35 4 -5 1 -5 -6 -1 -16 9 -44 -12 -35 -27 3 -5 1 -7 -5 -3 -14 8 -42
-32 -35 -50 3 -8 -1 -14 -7 -14 -9 0 -6 -8 6 -22 15 -19 16 -20 2 -9 -10 7
-18 12 -19 10 -8 -38 -8 -59 1 -59 6 0 8 5 4 12 -5 7 -3 8 6 3 10 -6 10 -10
-2 -19 -8 -6 -14 -15 -12 -21 1 -5 5 -21 8 -35 3 -14 19 -40 35 -59 26 -31 32
-33 46 -21 18 15 68 22 60 9 -3 -4 -13 -6 -23 -4 -9 1 -23 -2 -29 -8 -15 -11
-17 -31 -3 -22 6 3 10 1 10 -4 0 -6 8 -11 18 -11 10 0 23 -5 30 -12 29 -29
252 -8 252 23 0 5 6 9 13 9 17 0 79 59 72 70 -3 5 4 8 15 7 20 -1 29 -17 10
-17 -5 0 -9 -11 -8 -25 1 -14 6 -25 11 -25 4 0 6 -4 2 -9 -3 -5 5 -17 17 -25
20 -14 25 -14 51 2 17 9 32 27 34 41 3 20 1 22 -11 12 -11 -9 -16 -9 -22 0 -4
7 -3 9 4 5 6 -3 14 -1 18 6 11 18 12 48 2 48 -5 0 -6 6 -2 12 11 18 11 198 0
198 -4 0 -2 8 5 17 12 15 12 16 -4 10 -16 -6 -16 -5 -1 18 20 30 19 26 5 54
-7 13 -9 21 -4 18 11 -7 11 23 0 40 -4 6 -4 18 -1 27 3 9 1 16 -5 16 -6 0 -8
6 -5 13 6 17 -24 89 -35 83 -5 -3 -8 2 -7 12 0 9 -4 16 -11 15 -7 -2 -10 3 -7
10 4 12 -93 69 -113 66 -4 -1 -10 0 -13 1 -16 8 -170 6 -170 -2z m60 -28 c0
-4 -7 -7 -15 -6 -23 3 -26 12 -5 13 11 1 20 -2 20 -7z m150 6 c0 -2 -8 -10
-17 -17 -16 -13 -17 -12 -4 4 13 16 21 21 21 13z m-317 -41 c-7 -21 -12 -19
-10 4 0 11 5 18 9 15 4 -3 5 -11 1 -19z m247 13 c0 -4 -4 -8 -9 -8 -6 0 -12 4
-15 8 -3 5 1 9 9 9 8 0 15 -4 15 -9z m93 -28 c10 -12 9 -12 -4 -2 -9 6 -18 9
-21 6 -3 -3 -9 -1 -12 4 -9 15 22 8 37 -8z m-9 -32 c-3 -4 -9 -8 -15 -8 -5 0
-9 4 -9 8 0 5 7 9 15 9 8 0 12 -4 9 -9z m113 -63 c0 -8 -4 -12 -9 -9 -5 3 -6
10 -3 15 9 13 12 11 12 -6z m-2 -43 c-3 -3 -11 0 -18 7 -9 10 -8 11 6 5 10 -3
15 -9 12 -12z m-39 -106 c-2 -38 -12 -39 -12 -1 0 18 3 32 7 30 3 -3 5 -15 5
-29z m-325 -13 c13 -16 12 -17 -3 -4 -17 13 -22 21 -14 21 2 0 10 -8 17 -17z
m245 -8 c1 -8 -1 -17 -5 -19 -4 -3 -7 6 -7 19 0 25 8 25 12 0z m39 7 c-3 -3
-11 0 -18 7 -9 10 -8 11 6 5 10 -3 15 -9 12 -12z m79 2 c3 -8 2 -12 -4 -9 -6
3 -10 10 -10 16 0 14 7 11 14 -7z m-194 -10 c0 -8 -19 -13 -24 -6 -3 5 1 9 9
9 8 0 15 -2 15 -3z m-47 -38 c18 -1 38 6 45 14 10 13 12 13 10 0 -2 -10 6 -13
34 -11 54 4 75 -15 73 -65 -1 -23 -5 -46 -8 -51 -4 -6 10 -9 34 -8 21 1 37 -1
33 -4 -3 -3 -19 -7 -35 -7 -46 -2 -51 -3 -44 -13 3 -5 0 -13 -6 -16 -5 -4 -8
-14 -5 -22 3 -8 1 -11 -4 -8 -6 3 -10 1 -10 -5 0 -6 -4 -9 -9 -5 -5 3 -12 -4
-16 -15 -4 -11 -11 -17 -17 -14 -7 5 -9 2 -6 -7 4 -10 -1 -15 -16 -16 -11 -1
-51 -5 -88 -10 -43 -6 -68 -6 -68 0 0 5 -8 3 -17 -4 -11 -10 -14 -10 -9 -1 4
6 3 12 -3 12 -6 0 -25 13 -44 29 -27 25 -34 38 -36 76 -2 44 22 105 42 105 4
0 6 4 2 9 -3 5 0 13 6 17 8 4 9 3 5 -4 -4 -7 -3 -12 3 -12 5 0 13 5 16 10 4 6
11 8 16 5 5 -4 9 2 9 12 0 12 3 14 8 6 4 -6 19 -9 35 -6 24 5 26 8 15 22 -12
14 -11 15 5 2 10 -8 33 -15 50 -15z m241 16 c3 -5 -1 -9 -9 -9 -8 0 -12 4 -9
9 3 4 7 8 9 8 2 0 6 -4 9 -8z m-494 -61 c0 -6 -4 -12 -8 -15 -5 -3 -9 1 -9 9
0 8 4 15 9 15 4 0 8 -4 8 -9z m-4 -43 c3 -4 -1 -5 -10 -4 -8 1 -18 5 -22 8 -3
4 1 5 10 4 8 -1 18 -5 22 -8z m44 6 c0 -8 -19 -13 -24 -6 -3 5 1 9 9 9 8 0 15
-2 15 -3z m486 -6 c3 -4 -1 -5 -10 -4 -8 1 -18 5 -22 8 -3 4 1 5 10 4 8 -1 18
-5 22 -8z m-546 -60 c0 -4 -4 -8 -9 -8 -6 0 -12 4 -15 8 -3 5 1 9 9 9 8 0 15
-4 15 -9z m34 -9 c-3 -5 0 -18 8 -27 12 -15 11 -16 -4 -4 -16 13 -22 56 -6 46
5 -3 6 -10 2 -15z m462 -4 c-1 -8 -5 -17 -8 -21 -5 -4 -4 16 1 34 3 9 9 -1 7
-13z m-36 -3 c0 -5 -7 -9 -15 -9 -8 0 -12 4 -9 9 3 4 9 8 15 8 5 0 9 -4 9 -8z
m75 -10 c-3 -3 -11 0 -18 7 -9 10 -8 11 6 5 10 -3 15 -9 12 -12z m-538 -7 c0
-8 -4 -12 -9 -9 -5 3 -6 10 -3 15 9 13 12 11 12 -6z m0 -40 c0 -8 -4 -12 -9
-9 -5 3 -6 10 -3 15 9 13 12 11 12 -6z m97 -31 c3 -8 2 -12 -4 -9 -6 3 -10 10
-10 16 0 14 7 11 14 -7z m246 -35 c0 -5 -4 -9 -8 -9 -5 0 -9 7 -9 15 0 8 4 12
9 9 4 -3 8 -9 8 -15z m-60 7 c0 -2 -7 -7 -16 -10 -8 -3 -12 -2 -9 4 6 10 25
14 25 6z m230 -1 c0 -2 -6 -8 -13 -14 -10 -8 -14 -7 -14 2 0 8 6 14 14 14 7 0
13 -1 13 -2z m-250 -46 c0 -5 -4 -9 -8 -9 -5 0 -9 7 -9 15 0 8 4 12 9 9 4 -3
8 -9 8 -15z m255 2 c-9 -8 -36 -10 -30 -2 2 4 11 8 20 8 8 0 13 -3 10 -6z
m-355 -21 c0 -5 -2 -10 -4 -10 -3 0 -8 5 -11 10 -3 6 -1 10 4 10 6 0 11 -4 11
-10z"/>
<path d="M4967 2794 c-3 -3 -36 -11 -58 -13 -3 -1 -25 -15 -48 -32 -42 -30
-43 -31 -24 -52 l18 -22 -24 20 c-15 12 -25 16 -28 9 -2 -6 -10 -19 -17 -30
-12 -16 -14 -13 -14 26 -1 25 -6 46 -11 48 -6 2 -9 8 -6 13 7 11 -40 23 -61
15 -8 -3 -12 -11 -9 -16 4 -6 1 -9 -6 -8 -16 4 -20 -48 -6 -76 5 -10 5 -16 0
-13 -4 3 -9 -12 -9 -34 -1 -21 3 -39 8 -39 5 0 6 -5 2 -12 -13 -20 -10 -108 4
-108 6 0 12 -5 12 -11 0 -5 -4 -8 -9 -4 -5 3 -12 1 -16 -5 -3 -5 0 -10 7 -10
9 0 9 -3 -2 -10 -13 -8 -12 -11 5 -25 11 -8 14 -14 6 -13 -11 2 -14 -15 -15
-80 -1 -59 2 -82 12 -82 6 0 12 -5 12 -11 0 -5 -4 -8 -9 -4 -5 3 -12 1 -16 -5
-3 -5 0 -10 7 -10 9 0 9 -3 -2 -10 -13 -8 -12 -11 5 -25 11 -9 15 -14 9 -11
-7 3 -14 0 -17 -8 -8 -19 3 -57 14 -50 5 3 6 -1 3 -9 -3 -10 4 -17 21 -21 44
-11 71 4 66 37 0 4 3 7 7 7 11 0 10 90 -1 107 -4 6 -1 14 5 17 11 5 11 7 0 12
-6 3 -9 11 -5 17 11 18 11 107 0 107 -5 0 -5 6 2 13 6 8 9 22 7 33 -2 10 0 40
3 66 5 30 4 52 -3 59 -8 9 -8 10 2 5 17 -10 28 24 11 35 -11 8 -9 9 6 7 14 -2
20 2 19 14 -1 10 2 15 7 12 5 -3 13 5 18 18 6 13 10 20 10 15 1 -4 19 4 41 18
23 14 44 24 49 21 4 -3 20 1 35 9 14 8 24 10 21 5 -5 -9 57 -15 69 -7 2 1 21
-16 43 -38 21 -22 40 -39 44 -38 3 1 5 -8 5 -20 1 -45 9 -82 19 -89 6 -5 4
-12 -5 -18 -13 -9 -13 -10 0 -10 9 0 11 -3 4 -8 -12 -8 -13 -73 -2 -65 5 2 8
-1 8 -6 0 -6 -5 -11 -10 -11 -13 0 -9 -32 5 -42 6 -5 4 -12 -5 -18 -13 -9 -13
-10 0 -10 9 0 11 -3 5 -8 -12 -8 -12 -92 -1 -110 4 -7 3 -12 -2 -12 -6 0 -8
-17 -7 -37 2 -21 4 -44 4 -52 1 -7 7 -11 15 -8 8 3 13 -1 12 -11 -1 -16 7 -18
63 -13 8 0 12 4 8 7 -3 4 -1 12 6 18 14 14 15 473 1 504 -11 25 -11 24 -19 60
-8 34 -26 46 -20 12 2 -11 0 -18 -5 -15 -5 3 -7 17 -4 30 3 15 0 25 -7 25 -7
0 -9 3 -6 7 10 9 -55 54 -71 48 -8 -3 -10 0 -6 7 5 7 0 9 -14 6 -12 -4 -20 -2
-16 3 3 5 -3 10 -13 11 -42 4 -133 5 -136 2z m34 -21 c13 -16 12 -17 -3 -4
-17 13 -22 21 -14 21 2 0 10 -8 17 -17z m-76 -11 c-3 -3 0 -11 6 -19 17 -20 5
-16 -14 5 -15 16 -15 19 -2 19 8 0 13 -3 10 -5z m59 -8 c3 -8 2 -12 -4 -9 -6
3 -10 10 -10 16 0 14 7 11 14 -7z m97 -21 c13 -16 12 -17 -3 -4 -17 13 -22 21
-14 21 2 0 10 -8 17 -17z m-355 -39 c1 -9 0 -13 -4 -10 -3 4 -7 14 -8 22 -1 9
0 13 4 10 3 -4 7 -14 8 -22z m421 -29 c0 -8 -4 -12 -9 -9 -5 3 -6 10 -3 15 9
13 12 11 12 -6z m64 -2 c13 -16 12 -17 -3 -4 -10 7 -18 15 -18 17 0 8 8 3 21
-13z m-501 -19 c0 -8 -19 -13 -24 -6 -3 5 1 9 9 9 8 0 15 -2 15 -3z m500 -18
c0 -2 -7 -7 -16 -10 -8 -3 -12 -2 -9 4 6 10 25 14 25 6z m-500 -27 c0 -5 -4
-9 -8 -9 -5 0 -9 7 -9 15 0 8 4 12 9 9 4 -3 8 -9 8 -15z m55 -58 c3 -5 2 -12
-3 -15 -5 -3 -9 1 -9 9 0 17 3 19 12 6z m462 -14 c0 -8 -6 -14 -14 -14 -9 0
-10 4 -2 14 6 7 12 13 14 13 1 0 2 -6 2 -13z m37 -45 c3 -5 -1 -9 -9 -9 -8 0
-12 4 -9 9 3 4 7 8 9 8 2 0 6 -4 9 -8z m-57 -35 c0 -8 -6 -14 -14 -14 -9 0
-10 4 -2 14 6 7 12 13 14 13 1 0 2 -6 2 -13z m63 -88 c0 -5 -4 -9 -8 -9 -5 0
-9 7 -9 15 0 8 4 12 9 9 4 -3 8 -9 8 -15z m-505 2 c3 -5 2 -12 -3 -15 -5 -3
-9 1 -9 9 0 17 3 19 12 6z m9 -79 c3 -5 -1 -9 -9 -9 -8 0 -12 4 -9 9 3 4 7 8
9 8 2 0 6 -4 9 -8z m453 -9 c0 -9 -4 -10 -12 -3 -7 5 -15 7 -18 3 -4 -3 -7 -1
-7 5 0 6 8 10 18 9 10 0 19 -7 19 -14z m63 13 c0 -2 -7 -7 -16 -10 -8 -3 -12
-2 -9 4 6 10 25 14 25 6z m-24 -52 c1 -9 0 -13 -4 -10 -3 4 -7 14 -8 22 -1 9
0 13 4 10 3 -4 7 -14 8 -22z m-41 6 c3 -5 1 -10 -4 -10 -6 0 -11 5 -11 10 0 6
2 10 4 10 3 0 8 -4 11 -10z m19 -38 c3 -5 -1 -9 -9 -9 -8 0 -12 4 -9 9 3 4 7
8 9 8 2 0 6 -4 9 -8z m-497 -47 c0 -8 -4 -12 -9 -9 -5 3 -6 10 -3 15 9 13 12
11 12 -6z m500 -62 c0 -9 -4 -10 -14 -2 -7 6 -13 12 -13 14 0 1 6 2 13 2 8 0
14 -6 14 -14z"/>
<path d="M5707 2789 c-9 -6 -17 -7 -17 -3 0 3 -7 1 -15 -6 -8 -7 -15 -10 -15
-7 0 8 -45 -12 -87 -38 -33 -19 -45 -39 -19 -29 8 3 17 1 20 -4 3 -5 -2 -9
-11 -8 -25 2 -27 -20 -3 -44 18 -18 24 -19 38 -8 10 8 13 9 9 1 -4 -7 15 -2
42 10 27 12 47 25 45 28 -2 4 10 5 27 3 16 -2 28 0 25 4 -9 15 142 -5 169 -22
15 -10 34 -15 42 -12 12 5 13 4 5 -7 -16 -19 -3 -30 17 -14 14 10 14 10 3 -5
-8 -9 -11 -22 -8 -27 4 -5 9 -28 12 -50 6 -46 11 -43 -88 -44 -42 0 -46 -2
-36 -16 10 -12 8 -12 -8 2 -11 9 -23 15 -25 12 -3 -3 -26 -5 -52 -6 -35 -2
-47 -6 -48 -18 0 -10 -2 -12 -6 -3 -2 6 -9 12 -14 12 -6 0 -8 -4 -5 -9 4 -5
-2 -7 -12 -4 -10 2 -31 -1 -47 -8 -17 -7 -34 -13 -38 -13 -5 -1 -15 -10 -23
-21 -8 -11 -18 -20 -22 -20 -4 0 -6 -4 -4 -8 1 -5 -2 -6 -6 -3 -5 3 -18 -4
-28 -16 -13 -15 -14 -19 -4 -14 10 5 9 3 -2 -6 -9 -8 -19 -25 -23 -39 -10 -41
-13 -109 -4 -109 5 0 6 -6 3 -14 -8 -20 24 -78 38 -70 6 4 8 3 5 -3 -8 -13 35
-50 56 -47 9 1 15 -2 14 -8 -6 -27 222 -49 241 -23 4 6 13 11 21 13 29 6 114
75 105 85 -3 2 2 7 10 10 12 5 14 -1 11 -26 -8 -62 51 -99 94 -58 17 16 23
123 7 113 -6 -3 -5 1 1 9 10 12 10 18 0 29 -9 10 -9 11 1 6 6 -4 12 -2 12 3 0
6 -5 11 -11 11 -6 0 -7 5 -2 13 10 16 10 147 0 147 -5 0 -5 6 0 13 11 18 11
70 -1 86 -9 12 -8 13 3 7 10 -6 12 -4 8 10 -3 11 -9 38 -12 62 -4 23 -11 42
-16 42 -6 0 -9 6 -8 13 3 25 -1 38 -11 32 -6 -4 -9 -3 -8 2 4 17 -14 53 -28
53 -8 0 -14 5 -14 10 0 6 -21 20 -47 31 -54 24 -220 38 -207 18 4 -8 1 -8 -13
-1 -12 7 -25 7 -36 1z m117 -28 c-7 -8 -74 -9 -69 -1 2 3 19 6 39 6 19 0 33
-3 30 -5z m66 -1 c0 -5 -2 -10 -4 -10 -3 0 -8 5 -11 10 -3 6 -1 10 4 10 6 0
11 -4 11 -10z m-240 -24 c-7 -7 -13 -7 -20 0 -6 6 -3 10 10 10 13 0 16 -4 10
-10z m216 -22 c1 -9 0 -13 -4 -10 -3 4 -7 14 -8 22 -1 9 0 13 4 10 3 -4 7 -14
8 -22z m-259 -3 c0 -11 -5 -18 -9 -15 -4 3 -5 11 -1 19 7 21 12 19 10 -4z m94
-4 c-10 -9 -11 -8 -5 6 3 10 9 15 12 12 3 -3 0 -11 -7 -18z m214 13 c3 -6 -1
-7 -9 -4 -18 7 -21 14 -7 14 6 0 13 -4 16 -10z m75 0 c0 -5 -5 -10 -11 -10 -5
0 -7 5 -4 10 3 6 8 10 11 10 2 0 4 -4 4 -10z m15 -68 c-3 -3 -11 0 -18 7 -9
10 -8 11 6 5 10 -3 15 -9 12 -12z m65 -51 c0 -6 -4 -12 -8 -15 -5 -3 -9 1 -9
9 0 8 4 15 9 15 4 0 8 -4 8 -9z m-47 -36 c-3 -9 -8 -14 -10 -11 -3 3 -2 9 2
15 9 16 15 13 8 -4z m41 -11 c3 -8 2 -12 -4 -9 -6 3 -10 10 -10 16 0 14 7 11
14 -7z m0 -35 c3 -2 -10 -5 -29 -5 -18 0 -32 3 -30 7 5 7 52 6 59 -2z m-54
-33 c0 -2 -7 -7 -16 -10 -8 -3 -12 -2 -9 4 6 10 25 14 25 6z m40 -10 c0 -2 -8
-10 -17 -17 -16 -13 -17 -12 -4 4 13 16 21 21 21 13z m-85 -33 c-1 -16 3 -37
9 -48 13 -25 17 -105 5 -105 -5 0 -9 -8 -9 -18 0 -10 -5 -23 -12 -30 -7 -7 -9
-12 -5 -12 10 0 -28 -37 -53 -50 -11 -6 -19 -14 -16 -18 5 -8 0 -9 -94 -17
-70 -5 -110 6 -149 39 -13 12 -21 15 -16 7 5 -9 4 -12 -3 -8 -5 4 -8 16 -5 27
6 23 -6 26 -27 8 -8 -7 -7 -4 2 7 9 11 18 36 20 55 8 87 96 130 259 127 86 -2
86 -2 84 23 -2 23 2 40 9 40 2 0 2 -12 1 -27z m-295 13 c0 -2 -8 -10 -17 -17
-16 -13 -17 -12 -4 4 13 16 21 21 21 13z m63 -10 c11 1 16 0 13 -4 -13 -12
-36 -10 -48 6 -11 15 -11 15 2 6 8 -6 23 -10 33 -8z m175 -11 c-3 -3 -9 2 -12
12 -6 14 -5 15 5 6 7 -7 10 -15 7 -18z m-301 -25 c1 -11 -2 -22 -6 -24 -6 -4
-7 26 -2 42 3 8 7 -1 8 -18z m402 3 c-9 -10 -8 -18 2 -30 13 -16 12 -17 -3 -5
-19 15 -20 49 -1 49 9 0 10 -4 2 -14z m35 -23 c-6 -6 -10 -3 -10 10 0 13 4 16
10 10 7 -7 7 -13 0 -20z m-461 -40 c10 -12 9 -12 -3 -3 -8 6 -23 9 -33 8 -9
-2 -15 0 -12 5 7 12 33 6 48 -10z m458 -17 c13 -16 12 -17 -3 -4 -10 7 -18 15
-18 17 0 8 8 3 21 -13z m-460 -47 c-12 -14 -35 -16 -47 -3 -4 3 3 5 14 2 12
-2 24 0 27 6 4 5 9 9 12 9 3 0 0 -6 -6 -14z m483 -5 c-7 -8 -54 -9 -59 -2 -2
4 12 7 30 7 19 0 32 -3 29 -5z m2 -83 c3 -4 -2 -5 -13 -4 -10 2 -25 -2 -33 -8
-13 -9 -13 -9 -2 6 12 16 35 18 48 6z m-495 -21 c-6 -8 -8 -17 -4 -20 3 -4 1
-7 -5 -7 -15 0 -15 13 0 28 16 16 23 15 9 -1z m51 -12 c19 0 14 -11 -6 -11
-12 0 -23 6 -23 13 0 6 5 9 11 5 6 -4 14 -7 18 -7z m-92 -5 c0 -5 -2 -10 -4
-10 -3 0 -8 5 -11 10 -3 6 -1 10 4 10 6 0 11 -4 11 -10z m413 -10 c10 -12 9
-12 -4 -2 -9 6 -18 9 -21 6 -3 -3 -9 -1 -12 4 -9 15 22 8 37 -8z m102 -17 c-1
-10 3 -25 9 -33 9 -13 9 -13 -6 -2 -13 10 -16 26 -9 50 4 11 9 -2 6 -15z
m-300 -12 c-9 -8 -36 -10 -30 -2 2 4 11 8 20 8 8 0 13 -3 10 -6z m81 -3 c3 -4
-1 -5 -10 -4 -8 1 -18 5 -22 8 -3 4 1 5 10 4 8 -1 18 -5 22 -8z m259 3 c3 -5
2 -12 -3 -15 -5 -3 -9 1 -9 9 0 17 3 19 12 6z m-296 -34 c8 -10 7 -14 -2 -14
-8 0 -14 6 -14 14 0 7 1 13 2 13 2 0 8 -6 14 -13z m-79 -5 c0 -5 -7 -9 -15 -9
-8 0 -12 4 -9 9 3 4 9 8 15 8 5 0 9 -4 9 -8z"/>
</g>
</svg>
